<mxfile host="app.diagrams.net" agent="Mozilla/5.0 (Windows NT 10.0; Win64; x64) AppleWebKit/537.36 (KHTML, like Gecko) Chrome/133.0.0.0 Safari/537.36" version="26.0.16">
  <diagram name="Página-1" id="6jxqAxKodcOs0ckHhdJL">
    <mxGraphModel dx="1434" dy="822" grid="1" gridSize="10" guides="1" tooltips="1" connect="1" arrows="1" fold="1" page="1" pageScale="1" pageWidth="827" pageHeight="1169" math="0" shadow="0">
      <root>
        <mxCell id="0" />
        <mxCell id="1" parent="0" />
        <mxCell id="i8YapZez4RIZr1JvTsTq-3" value="" style="edgeStyle=orthogonalEdgeStyle;rounded=0;orthogonalLoop=1;jettySize=auto;html=1;fontStyle=1" parent="1" source="i8YapZez4RIZr1JvTsTq-1" edge="1">
          <mxGeometry relative="1" as="geometry">
            <mxPoint x="364" y="80" as="targetPoint" />
          </mxGeometry>
        </mxCell>
        <mxCell id="IWz0H4ubVKSLzAyVTmSw-3" style="edgeStyle=none;curved=1;rounded=0;orthogonalLoop=1;jettySize=auto;html=1;fontSize=12;startSize=8;endSize=8;entryX=0.5;entryY=0;entryDx=0;entryDy=0;" edge="1" parent="1" source="i8YapZez4RIZr1JvTsTq-1" target="IWz0H4ubVKSLzAyVTmSw-5">
          <mxGeometry relative="1" as="geometry">
            <mxPoint x="264" y="150" as="targetPoint" />
          </mxGeometry>
        </mxCell>
        <mxCell id="i8YapZez4RIZr1JvTsTq-1" value="&lt;h1 style=&quot;font-size: 20px;&quot;&gt;Inicio&lt;/h1&gt;" style="ellipse;whiteSpace=wrap;html=1;fontSize=20;fontStyle=1;fillColor=#d5e8d4;strokeColor=#82b366;" parent="1" vertex="1">
          <mxGeometry x="204" y="40" width="120" height="80" as="geometry" />
        </mxCell>
        <mxCell id="i8YapZez4RIZr1JvTsTq-32" style="edgeStyle=orthogonalEdgeStyle;rounded=0;orthogonalLoop=1;jettySize=auto;html=1;fontStyle=1" parent="1" source="i8YapZez4RIZr1JvTsTq-4" target="i8YapZez4RIZr1JvTsTq-15" edge="1">
          <mxGeometry relative="1" as="geometry" />
        </mxCell>
        <mxCell id="i8YapZez4RIZr1JvTsTq-4" value="Inputs" style="swimlane;fontStyle=1;childLayout=stackLayout;horizontal=1;startSize=30;horizontalStack=0;resizeParent=1;resizeParentMax=0;resizeLast=0;collapsible=1;marginBottom=0;whiteSpace=wrap;html=1;fillColor=#dae8fc;strokeColor=#6c8ebf;" parent="1" vertex="1">
          <mxGeometry x="524" y="40" width="160" height="250" as="geometry" />
        </mxCell>
        <mxCell id="i8YapZez4RIZr1JvTsTq-7" value="Descrição do Ativo * (obrigatório)" style="text;strokeColor=none;fillColor=none;align=left;verticalAlign=middle;spacingLeft=4;spacingRight=4;overflow=hidden;points=[[0,0.5],[1,0.5]];portConstraint=eastwest;rotatable=0;whiteSpace=wrap;html=1;fontStyle=1" parent="i8YapZez4RIZr1JvTsTq-4" vertex="1">
          <mxGeometry y="30" width="160" height="30" as="geometry" />
        </mxCell>
        <mxCell id="i8YapZez4RIZr1JvTsTq-5" value="Tipo * (obrigatório)" style="text;strokeColor=none;fillColor=none;align=left;verticalAlign=middle;spacingLeft=4;spacingRight=4;overflow=hidden;points=[[0,0.5],[1,0.5]];portConstraint=eastwest;rotatable=0;whiteSpace=wrap;html=1;fontStyle=1" parent="i8YapZez4RIZr1JvTsTq-4" vertex="1">
          <mxGeometry y="60" width="160" height="30" as="geometry" />
        </mxCell>
        <mxCell id="i8YapZez4RIZr1JvTsTq-6" value="Marca * (obrigatório)" style="text;strokeColor=none;fillColor=none;align=left;verticalAlign=middle;spacingLeft=4;spacingRight=4;overflow=hidden;points=[[0,0.5],[1,0.5]];portConstraint=eastwest;rotatable=0;whiteSpace=wrap;html=1;fontStyle=1" parent="i8YapZez4RIZr1JvTsTq-4" vertex="1">
          <mxGeometry y="90" width="160" height="30" as="geometry" />
        </mxCell>
        <mxCell id="i8YapZez4RIZr1JvTsTq-12" value="Quantidade" style="text;strokeColor=none;fillColor=none;align=left;verticalAlign=middle;spacingLeft=4;spacingRight=4;overflow=hidden;points=[[0,0.5],[1,0.5]];portConstraint=eastwest;rotatable=0;whiteSpace=wrap;html=1;fontStyle=1" parent="i8YapZez4RIZr1JvTsTq-4" vertex="1">
          <mxGeometry y="120" width="160" height="30" as="geometry" />
        </mxCell>
        <mxCell id="i8YapZez4RIZr1JvTsTq-30" value="Quantidade Minima" style="text;strokeColor=none;fillColor=none;align=left;verticalAlign=middle;spacingLeft=4;spacingRight=4;overflow=hidden;points=[[0,0.5],[1,0.5]];portConstraint=eastwest;rotatable=0;whiteSpace=wrap;html=1;fontStyle=1" parent="i8YapZez4RIZr1JvTsTq-4" vertex="1">
          <mxGeometry y="150" width="160" height="30" as="geometry" />
        </mxCell>
        <mxCell id="i8YapZez4RIZr1JvTsTq-31" value="Observação" style="text;strokeColor=none;fillColor=none;align=left;verticalAlign=middle;spacingLeft=4;spacingRight=4;overflow=hidden;points=[[0,0.5],[1,0.5]];portConstraint=eastwest;rotatable=0;whiteSpace=wrap;html=1;fontStyle=1" parent="i8YapZez4RIZr1JvTsTq-4" vertex="1">
          <mxGeometry y="180" width="160" height="30" as="geometry" />
        </mxCell>
        <mxCell id="t0p-oIANMJ21w0eJMZg_-10" value="Imagem * (obrigatório)" style="text;strokeColor=none;fillColor=none;align=left;verticalAlign=middle;spacingLeft=4;spacingRight=4;overflow=hidden;points=[[0,0.5],[1,0.5]];portConstraint=eastwest;rotatable=0;whiteSpace=wrap;html=1;fontStyle=1" parent="i8YapZez4RIZr1JvTsTq-4" vertex="1">
          <mxGeometry y="210" width="160" height="40" as="geometry" />
        </mxCell>
        <mxCell id="i8YapZez4RIZr1JvTsTq-11" style="edgeStyle=orthogonalEdgeStyle;rounded=0;orthogonalLoop=1;jettySize=auto;html=1;fontStyle=1" parent="1" source="i8YapZez4RIZr1JvTsTq-9" target="i8YapZez4RIZr1JvTsTq-4" edge="1">
          <mxGeometry relative="1" as="geometry" />
        </mxCell>
        <mxCell id="i8YapZez4RIZr1JvTsTq-9" value="Cadastrar ativo&lt;div&gt;(abrir modal)&lt;/div&gt;" style="rounded=0;whiteSpace=wrap;html=1;fontStyle=1;fillColor=#dae8fc;strokeColor=#6c8ebf;" parent="1" vertex="1">
          <mxGeometry x="364" y="50" width="120" height="60" as="geometry" />
        </mxCell>
        <mxCell id="i8YapZez4RIZr1JvTsTq-20" style="edgeStyle=orthogonalEdgeStyle;rounded=0;orthogonalLoop=1;jettySize=auto;html=1;entryX=0.5;entryY=0;entryDx=0;entryDy=0;fontStyle=1" parent="1" source="i8YapZez4RIZr1JvTsTq-15" target="i8YapZez4RIZr1JvTsTq-18" edge="1">
          <mxGeometry relative="1" as="geometry">
            <mxPoint x="604" y="410" as="targetPoint" />
          </mxGeometry>
        </mxCell>
        <mxCell id="i8YapZez4RIZr1JvTsTq-15" value="Validação de campos nenhum campo obrigatório pode estar vazio" style="rounded=0;whiteSpace=wrap;html=1;fontStyle=1;fillColor=#dae8fc;strokeColor=#6c8ebf;" parent="1" vertex="1">
          <mxGeometry x="544" y="330" width="120" height="60" as="geometry" />
        </mxCell>
        <mxCell id="i8YapZez4RIZr1JvTsTq-25" value="" style="edgeStyle=orthogonalEdgeStyle;rounded=0;orthogonalLoop=1;jettySize=auto;html=1;fontStyle=1" parent="1" source="i8YapZez4RIZr1JvTsTq-18" target="i8YapZez4RIZr1JvTsTq-24" edge="1">
          <mxGeometry relative="1" as="geometry" />
        </mxCell>
        <mxCell id="IWz0H4ubVKSLzAyVTmSw-72" style="edgeStyle=none;curved=1;rounded=0;orthogonalLoop=1;jettySize=auto;html=1;fontSize=12;startSize=8;endSize=8;" edge="1" parent="1" source="i8YapZez4RIZr1JvTsTq-18">
          <mxGeometry relative="1" as="geometry">
            <mxPoint x="514" y="470" as="targetPoint" />
          </mxGeometry>
        </mxCell>
        <mxCell id="i8YapZez4RIZr1JvTsTq-18" value="Validação" style="rhombus;whiteSpace=wrap;html=1;fontStyle=1;fillColor=#fff2cc;strokeColor=#d6b656;" parent="1" vertex="1">
          <mxGeometry x="564" y="430" width="80" height="80" as="geometry" />
        </mxCell>
        <mxCell id="i8YapZez4RIZr1JvTsTq-21" value="Sim" style="rounded=0;whiteSpace=wrap;html=1;fillColor=#d5e8d4;strokeColor=#82b366;fontStyle=1" parent="1" vertex="1">
          <mxGeometry x="534" y="440" width="30" height="20" as="geometry" />
        </mxCell>
        <mxCell id="i8YapZez4RIZr1JvTsTq-24" value="Alerta informado para preencher todos os campos, borda vermelha nos campos não preenchidos." style="whiteSpace=wrap;html=1;fontStyle=1;fillColor=#f8cecc;strokeColor=#b85450;" parent="1" vertex="1">
          <mxGeometry x="684" y="430" width="140" height="80" as="geometry" />
        </mxCell>
        <mxCell id="i8YapZez4RIZr1JvTsTq-26" value="Não" style="rounded=0;whiteSpace=wrap;html=1;fillColor=#f8cecc;strokeColor=#b85450;fontStyle=1" parent="1" vertex="1">
          <mxGeometry x="644" y="440" width="30" height="20" as="geometry" />
        </mxCell>
        <mxCell id="IWz0H4ubVKSLzAyVTmSw-88" value="" style="edgeStyle=none;curved=1;rounded=0;orthogonalLoop=1;jettySize=auto;html=1;fontSize=12;startSize=8;endSize=8;" edge="1" parent="1" source="i8YapZez4RIZr1JvTsTq-27" target="IWz0H4ubVKSLzAyVTmSw-87">
          <mxGeometry relative="1" as="geometry" />
        </mxCell>
        <mxCell id="i8YapZez4RIZr1JvTsTq-27" value="&lt;div&gt;&lt;span style=&quot;background-color: initial; color: light-dark(rgb(0, 0, 0), rgb(255, 255, 255));&quot;&gt;Alerta de cadastro realizado&lt;/span&gt;&lt;/div&gt;" style="whiteSpace=wrap;html=1;fontStyle=1;fillColor=#d5e8d4;strokeColor=#82b366;" parent="1" vertex="1">
          <mxGeometry x="219" y="647.5" width="120" height="45" as="geometry" />
        </mxCell>
        <mxCell id="IWz0H4ubVKSLzAyVTmSw-16" style="edgeStyle=none;curved=1;rounded=0;orthogonalLoop=1;jettySize=auto;html=1;fontSize=12;startSize=8;endSize=8;" edge="1" parent="1" source="IWz0H4ubVKSLzAyVTmSw-5">
          <mxGeometry relative="1" as="geometry">
            <mxPoint x="164" y="195" as="targetPoint" />
          </mxGeometry>
        </mxCell>
        <mxCell id="IWz0H4ubVKSLzAyVTmSw-5" value="Tela de listagem de ativos (mostrando todos os ativos anteriormente cadastrados)" style="rounded=0;whiteSpace=wrap;html=1;fontStyle=1;fillColor=#dae8fc;strokeColor=#6c8ebf;" vertex="1" parent="1">
          <mxGeometry x="204" y="160" width="120" height="70" as="geometry" />
        </mxCell>
        <mxCell id="IWz0H4ubVKSLzAyVTmSw-19" style="edgeStyle=none;curved=1;rounded=0;orthogonalLoop=1;jettySize=auto;html=1;fontSize=12;startSize=8;endSize=8;" edge="1" parent="1" source="IWz0H4ubVKSLzAyVTmSw-8">
          <mxGeometry relative="1" as="geometry">
            <mxPoint x="84.00000000000023" y="510" as="targetPoint" />
          </mxGeometry>
        </mxCell>
        <mxCell id="IWz0H4ubVKSLzAyVTmSw-8" value="Tabela de lista de ativos" style="swimlane;fontStyle=1;childLayout=stackLayout;horizontal=1;startSize=30;horizontalStack=0;resizeParent=1;resizeParentMax=0;resizeLast=0;collapsible=1;marginBottom=0;whiteSpace=wrap;html=1;fillColor=#dae8fc;strokeColor=#6c8ebf;" vertex="1" parent="1">
          <mxGeometry x="4" y="160" width="160" height="310" as="geometry" />
        </mxCell>
        <mxCell id="IWz0H4ubVKSLzAyVTmSw-9" value="Descrição" style="text;strokeColor=none;fillColor=none;align=left;verticalAlign=middle;spacingLeft=4;spacingRight=4;overflow=hidden;points=[[0,0.5],[1,0.5]];portConstraint=eastwest;rotatable=0;whiteSpace=wrap;html=1;fontStyle=1" vertex="1" parent="IWz0H4ubVKSLzAyVTmSw-8">
          <mxGeometry y="30" width="160" height="30" as="geometry" />
        </mxCell>
        <mxCell id="IWz0H4ubVKSLzAyVTmSw-10" value="Tipo&amp;nbsp;" style="text;strokeColor=none;fillColor=none;align=left;verticalAlign=middle;spacingLeft=4;spacingRight=4;overflow=hidden;points=[[0,0.5],[1,0.5]];portConstraint=eastwest;rotatable=0;whiteSpace=wrap;html=1;fontStyle=1" vertex="1" parent="IWz0H4ubVKSLzAyVTmSw-8">
          <mxGeometry y="60" width="160" height="30" as="geometry" />
        </mxCell>
        <mxCell id="IWz0H4ubVKSLzAyVTmSw-11" value="Marca" style="text;strokeColor=none;fillColor=none;align=left;verticalAlign=middle;spacingLeft=4;spacingRight=4;overflow=hidden;points=[[0,0.5],[1,0.5]];portConstraint=eastwest;rotatable=0;whiteSpace=wrap;html=1;fontStyle=1" vertex="1" parent="IWz0H4ubVKSLzAyVTmSw-8">
          <mxGeometry y="90" width="160" height="30" as="geometry" />
        </mxCell>
        <mxCell id="IWz0H4ubVKSLzAyVTmSw-12" value="Quantidade" style="text;strokeColor=none;fillColor=none;align=left;verticalAlign=middle;spacingLeft=4;spacingRight=4;overflow=hidden;points=[[0,0.5],[1,0.5]];portConstraint=eastwest;rotatable=0;whiteSpace=wrap;html=1;fontStyle=1" vertex="1" parent="IWz0H4ubVKSLzAyVTmSw-8">
          <mxGeometry y="120" width="160" height="30" as="geometry" />
        </mxCell>
        <mxCell id="IWz0H4ubVKSLzAyVTmSw-13" value="Quantidade Minima" style="text;strokeColor=none;fillColor=none;align=left;verticalAlign=middle;spacingLeft=4;spacingRight=4;overflow=hidden;points=[[0,0.5],[1,0.5]];portConstraint=eastwest;rotatable=0;whiteSpace=wrap;html=1;fontStyle=1" vertex="1" parent="IWz0H4ubVKSLzAyVTmSw-8">
          <mxGeometry y="150" width="160" height="30" as="geometry" />
        </mxCell>
        <mxCell id="IWz0H4ubVKSLzAyVTmSw-14" value="Observação" style="text;strokeColor=none;fillColor=none;align=left;verticalAlign=middle;spacingLeft=4;spacingRight=4;overflow=hidden;points=[[0,0.5],[1,0.5]];portConstraint=eastwest;rotatable=0;whiteSpace=wrap;html=1;fontStyle=1" vertex="1" parent="IWz0H4ubVKSLzAyVTmSw-8">
          <mxGeometry y="180" width="160" height="30" as="geometry" />
        </mxCell>
        <mxCell id="IWz0H4ubVKSLzAyVTmSw-17" value="Data Cadastro" style="text;strokeColor=none;fillColor=none;align=left;verticalAlign=middle;spacingLeft=4;spacingRight=4;overflow=hidden;points=[[0,0.5],[1,0.5]];portConstraint=eastwest;rotatable=0;whiteSpace=wrap;html=1;fontStyle=1" vertex="1" parent="IWz0H4ubVKSLzAyVTmSw-8">
          <mxGeometry y="210" width="160" height="30" as="geometry" />
        </mxCell>
        <mxCell id="IWz0H4ubVKSLzAyVTmSw-18" value="Usuario" style="text;strokeColor=none;fillColor=none;align=left;verticalAlign=middle;spacingLeft=4;spacingRight=4;overflow=hidden;points=[[0,0.5],[1,0.5]];portConstraint=eastwest;rotatable=0;whiteSpace=wrap;html=1;fontStyle=1" vertex="1" parent="IWz0H4ubVKSLzAyVTmSw-8">
          <mxGeometry y="240" width="160" height="30" as="geometry" />
        </mxCell>
        <mxCell id="IWz0H4ubVKSLzAyVTmSw-15" value="Imagem" style="text;strokeColor=none;fillColor=none;align=left;verticalAlign=middle;spacingLeft=4;spacingRight=4;overflow=hidden;points=[[0,0.5],[1,0.5]];portConstraint=eastwest;rotatable=0;whiteSpace=wrap;html=1;fontStyle=1" vertex="1" parent="IWz0H4ubVKSLzAyVTmSw-8">
          <mxGeometry y="270" width="160" height="40" as="geometry" />
        </mxCell>
        <mxCell id="IWz0H4ubVKSLzAyVTmSw-58" value="Opções de ações que pode ser realizadas na tabela" style="rounded=0;whiteSpace=wrap;html=1;fontStyle=1;fillColor=#dae8fc;strokeColor=#6c8ebf;" vertex="1" parent="1">
          <mxGeometry x="24" y="510" width="120" height="60" as="geometry" />
        </mxCell>
        <mxCell id="IWz0H4ubVKSLzAyVTmSw-59" value="Ações" style="swimlane;fontStyle=1;childLayout=stackLayout;horizontal=1;startSize=30;horizontalStack=0;resizeParent=1;resizeParentMax=0;resizeLast=0;collapsible=1;marginBottom=0;whiteSpace=wrap;html=1;fillColor=#dae8fc;strokeColor=#6c8ebf;" vertex="1" parent="1">
          <mxGeometry x="4" y="610" width="160" height="270" as="geometry" />
        </mxCell>
        <mxCell id="IWz0H4ubVKSLzAyVTmSw-60" value="Ativo ou Inativo" style="text;strokeColor=none;fillColor=none;align=left;verticalAlign=middle;spacingLeft=4;spacingRight=4;overflow=hidden;points=[[0,0.5],[1,0.5]];portConstraint=eastwest;rotatable=0;whiteSpace=wrap;html=1;fontStyle=1" vertex="1" parent="IWz0H4ubVKSLzAyVTmSw-59">
          <mxGeometry y="30" width="160" height="30" as="geometry" />
        </mxCell>
        <mxCell id="IWz0H4ubVKSLzAyVTmSw-61" value="Editar" style="text;strokeColor=none;fillColor=none;align=left;verticalAlign=middle;spacingLeft=4;spacingRight=4;overflow=hidden;points=[[0,0.5],[1,0.5]];portConstraint=eastwest;rotatable=0;whiteSpace=wrap;html=1;fontStyle=1" vertex="1" parent="IWz0H4ubVKSLzAyVTmSw-59">
          <mxGeometry y="60" width="160" height="30" as="geometry" />
        </mxCell>
        <mxCell id="IWz0H4ubVKSLzAyVTmSw-62" value="Remover" style="text;strokeColor=none;fillColor=none;align=left;verticalAlign=middle;spacingLeft=4;spacingRight=4;overflow=hidden;points=[[0,0.5],[1,0.5]];portConstraint=eastwest;rotatable=0;whiteSpace=wrap;html=1;fontStyle=1" vertex="1" parent="IWz0H4ubVKSLzAyVTmSw-59">
          <mxGeometry y="90" width="160" height="30" as="geometry" />
        </mxCell>
        <mxCell id="IWz0H4ubVKSLzAyVTmSw-82" value="Copiar para a área de transferência" style="text;strokeColor=none;fillColor=none;align=left;verticalAlign=middle;spacingLeft=4;spacingRight=4;overflow=hidden;points=[[0,0.5],[1,0.5]];portConstraint=eastwest;rotatable=0;whiteSpace=wrap;html=1;fontStyle=1" vertex="1" parent="IWz0H4ubVKSLzAyVTmSw-59">
          <mxGeometry y="120" width="160" height="30" as="geometry" />
        </mxCell>
        <mxCell id="IWz0H4ubVKSLzAyVTmSw-83" value="CSV" style="text;strokeColor=none;fillColor=none;align=left;verticalAlign=middle;spacingLeft=4;spacingRight=4;overflow=hidden;points=[[0,0.5],[1,0.5]];portConstraint=eastwest;rotatable=0;whiteSpace=wrap;html=1;fontStyle=1" vertex="1" parent="IWz0H4ubVKSLzAyVTmSw-59">
          <mxGeometry y="150" width="160" height="30" as="geometry" />
        </mxCell>
        <mxCell id="IWz0H4ubVKSLzAyVTmSw-84" value="Exel" style="text;strokeColor=none;fillColor=none;align=left;verticalAlign=middle;spacingLeft=4;spacingRight=4;overflow=hidden;points=[[0,0.5],[1,0.5]];portConstraint=eastwest;rotatable=0;whiteSpace=wrap;html=1;fontStyle=1" vertex="1" parent="IWz0H4ubVKSLzAyVTmSw-59">
          <mxGeometry y="180" width="160" height="30" as="geometry" />
        </mxCell>
        <mxCell id="IWz0H4ubVKSLzAyVTmSw-85" value="PDF" style="text;strokeColor=none;fillColor=none;align=left;verticalAlign=middle;spacingLeft=4;spacingRight=4;overflow=hidden;points=[[0,0.5],[1,0.5]];portConstraint=eastwest;rotatable=0;whiteSpace=wrap;html=1;fontStyle=1" vertex="1" parent="IWz0H4ubVKSLzAyVTmSw-59">
          <mxGeometry y="210" width="160" height="30" as="geometry" />
        </mxCell>
        <mxCell id="IWz0H4ubVKSLzAyVTmSw-86" value="Imprimir" style="text;strokeColor=none;fillColor=none;align=left;verticalAlign=middle;spacingLeft=4;spacingRight=4;overflow=hidden;points=[[0,0.5],[1,0.5]];portConstraint=eastwest;rotatable=0;whiteSpace=wrap;html=1;fontStyle=1" vertex="1" parent="IWz0H4ubVKSLzAyVTmSw-59">
          <mxGeometry y="240" width="160" height="30" as="geometry" />
        </mxCell>
        <mxCell id="IWz0H4ubVKSLzAyVTmSw-70" style="edgeStyle=none;curved=1;rounded=0;orthogonalLoop=1;jettySize=auto;html=1;entryX=0.503;entryY=-0.024;entryDx=0;entryDy=0;entryPerimeter=0;fontSize=12;startSize=8;endSize=8;" edge="1" parent="1" source="IWz0H4ubVKSLzAyVTmSw-58" target="IWz0H4ubVKSLzAyVTmSw-59">
          <mxGeometry relative="1" as="geometry" />
        </mxCell>
        <mxCell id="IWz0H4ubVKSLzAyVTmSw-78" style="edgeStyle=none;curved=1;rounded=0;orthogonalLoop=1;jettySize=auto;html=1;entryX=1;entryY=0.5;entryDx=0;entryDy=0;fontSize=12;startSize=8;endSize=8;" edge="1" parent="1" source="IWz0H4ubVKSLzAyVTmSw-74" target="IWz0H4ubVKSLzAyVTmSw-75">
          <mxGeometry relative="1" as="geometry" />
        </mxCell>
        <mxCell id="IWz0H4ubVKSLzAyVTmSw-74" value="Verificando se a pasta img_ativo existe, caso não exista ela e criada automaticamente." style="rounded=0;whiteSpace=wrap;html=1;fontStyle=1;fillColor=#dae8fc;strokeColor=#6c8ebf;" vertex="1" parent="1">
          <mxGeometry x="384" y="435" width="130" height="70" as="geometry" />
        </mxCell>
        <mxCell id="IWz0H4ubVKSLzAyVTmSw-79" style="edgeStyle=none;curved=1;rounded=0;orthogonalLoop=1;jettySize=auto;html=1;entryX=0.5;entryY=0;entryDx=0;entryDy=0;fontSize=12;startSize=8;endSize=8;" edge="1" parent="1" source="IWz0H4ubVKSLzAyVTmSw-75" target="IWz0H4ubVKSLzAyVTmSw-77">
          <mxGeometry relative="1" as="geometry" />
        </mxCell>
        <mxCell id="IWz0H4ubVKSLzAyVTmSw-75" value="Move a imagem para a pasta criada" style="rounded=0;whiteSpace=wrap;html=1;fontStyle=1;fillColor=#dae8fc;strokeColor=#6c8ebf;" vertex="1" parent="1">
          <mxGeometry x="214" y="435" width="130" height="70" as="geometry" />
        </mxCell>
        <mxCell id="IWz0H4ubVKSLzAyVTmSw-80" style="edgeStyle=none;curved=1;rounded=0;orthogonalLoop=1;jettySize=auto;html=1;entryX=0.5;entryY=0;entryDx=0;entryDy=0;fontSize=12;startSize=8;endSize=8;" edge="1" parent="1" source="IWz0H4ubVKSLzAyVTmSw-77" target="i8YapZez4RIZr1JvTsTq-27">
          <mxGeometry relative="1" as="geometry" />
        </mxCell>
        <mxCell id="IWz0H4ubVKSLzAyVTmSw-77" value="Insert das informações para o banco de dados" style="rounded=0;whiteSpace=wrap;html=1;fontStyle=1;fillColor=#dae8fc;strokeColor=#6c8ebf;" vertex="1" parent="1">
          <mxGeometry x="214" y="540" width="130" height="70" as="geometry" />
        </mxCell>
        <mxCell id="IWz0H4ubVKSLzAyVTmSw-87" value="Tela recarregada" style="whiteSpace=wrap;html=1;fillColor=#d5e8d4;strokeColor=#82b366;fontStyle=1;" vertex="1" parent="1">
          <mxGeometry x="380" y="640" width="120" height="60" as="geometry" />
        </mxCell>
      </root>
    </mxGraphModel>
  </diagram>
</mxfile>
